<?xml version="1.0" encoding="UTF-8"?>
<svg width="53px" height="52px" viewBox="0 0 53 52" version="1.1" xmlns="http://www.w3.org/2000/svg" xmlns:xlink="http://www.w3.org/1999/xlink">
    <!-- Generator: Sketch 55 (78076) - https://sketchapp.com -->
    <title>tamanho-p</title>
    <desc>Created with Sketch.</desc>
    <g id="Mobile" stroke="none" stroke-width="1" fill="none" fill-rule="evenodd">
        <g id="Tamanho" transform="translate(-252.000000, -363.000000)" fill-rule="nonzero">
            <g id="Group-Copy-2" transform="translate(193.000000, 315.000000)">
                <g id="tamanho-p" transform="translate(59.000000, 48.000000)">
                    <path d="M37.7819432,0 L36.195122,4.01133218 C42.5754658,6.46813725 47.380008,12.0448674 48.6693003,18.85 L53,18.0455594 C51.4131787,9.77286621 45.5838145,2.96773356 37.7819432,0 Z" id="Shape" fill="#0B2031"></path>
                    <path d="M35.5233626,5.85 L29.0853659,22.1 L46.5365854,18.8628205 L46.5365854,18.8628205 C45.3927788,12.9974359 41.1988216,8.01880342 35.5233626,5.85 Z M38.7804878,17.6982906 C36.6998493,17.6982906 35.011373,16.0316239 35.011373,14.0017094 C35.011373,11.9717949 36.7107427,10.3051282 38.7804878,10.3051282 C40.8611263,10.3051282 42.5496026,11.9717949 42.5496026,14.0017094 C42.5496026,16.0316239 40.8175528,17.6982906 38.7804878,17.6982906 Z" id="Shape" fill="#0B2031"></path>
                    <path d="M48.0958245,23.4659188 L44.8763844,24.0486875 L44.8763844,24.0486875 C45.1265436,25.354521 45.2570615,26.6495625 45.2570615,27.955396 C45.2570615,39.4596814 35.8271474,48.7731882 24.2763185,48.7731882 C12.7254895,48.7731882 3.25206955,39.4165133 3.25206955,27.955396 C3.25206955,16.4942787 12.6928601,7.13760377 24.2328125,7.13760377 C26.8540458,7.13760377 29.4317732,7.60166031 31.8463533,8.56214943 L33.0318903,5.54038591 C30.2801392,4.49356069 27.3217348,3.9 24.2328125,3.9 C10.8656103,3.91079201 0,14.6596365 0,27.955396 C0,41.2511555 10.8656103,52 24.2328125,52 C37.6000148,52 48.4656251,41.2187794 48.4656251,27.955396 C48.5200075,26.4013462 48.3459837,24.9336325 48.0958245,23.4659188 Z" id="Shape" fill="#0B2031"></path>
                    <path d="M42.3579898,24.4415029 L23.9428855,27.95 L30.6727297,10.5382659 C30.6727297,10.5382659 28.0110872,9.1 23.8996068,9.1 C13.5884468,9.1 5.17073171,17.577052 5.17073171,27.960896 C5.17073171,38.3447399 13.5884468,46.8 23.8887871,46.8 C34.1891274,46.8 42.6176622,38.322948 42.6176622,27.939104 C42.7907772,26.8386127 42.3579898,24.4415029 42.3579898,24.4415029 Z M16.5746799,14.046763 C17.2022217,13.7961561 17.8405831,13.6218208 18.4681248,13.5346532 C19.0523878,13.4474855 19.6041918,13.8724277 19.6907493,14.4281214 C19.7773067,15.0165029 19.355339,15.5721965 18.8035351,15.6593642 C18.3382886,15.7465318 17.8405831,15.8663873 17.4186154,16.0407225 C16.7045161,16.3458092 16.1959909,15.8663873 16.0336957,15.452341 C15.7740232,14.8966474 16.022876,14.2537861 16.5746799,14.046763 Z M13.2097578,18.4487283 C13.718283,18.4051445 14.2159885,18.5794798 14.5946775,18.8736705 C15.059924,19.2114451 15.1464815,19.8869942 14.8002515,20.399104 C14.5946775,20.6932948 14.0428736,21.0637572 13.3287744,20.6061272 C12.7445114,20.649711 12.2359861,20.181185 12.1927074,19.5928035 C12.1494287,19.004422 12.6146751,18.4923121 13.2097578,18.4487283 Z M9.67172075,30.782948 C9.20647429,30.4451734 9.08745775,29.7696243 9.46614674,29.2575145 C9.80155698,28.7889884 10.4723775,28.6691329 10.9809027,29.0504913 L12.2468058,29.9875434 C12.7120523,30.3253179 12.8310688,31.0008671 12.4523799,31.5129769 C12.2468058,31.8071676 11.6733625,32.188526 10.9809027,31.72 L9.67172075,30.782948 Z M13.0799216,39.728526 C12.8743476,39.9355491 12.1494287,40.2951156 11.5651657,39.728526 L11.0566405,39.2164162 C10.6346727,38.791474 10.6346727,38.1159249 11.0566405,37.6909827 C11.4786082,37.2660405 12.1494287,37.2660405 12.5713964,37.6909827 L13.0799216,38.2030925 C13.5018893,38.6171387 13.5018893,39.3035838 13.0799216,39.728526 Z M12.6579539,25.4875145 C12.6579539,23.711474 14.0861523,22.2623121 15.8605807,22.2623121 C17.6350091,22.2623121 19.0632075,23.700578 19.0632075,25.4875145 C19.0632075,27.2744509 17.6350091,28.7127168 15.8605807,28.7127168 C14.0861523,28.7127168 12.6579539,27.2635549 12.6579539,25.4875145 Z M16.6179587,35.9912139 C16.4123846,36.198237 15.6982854,36.5686994 15.1032027,35.9476301 L14.302546,35.1413295 C13.8805783,34.7163873 13.8805783,34.0408382 14.302546,33.615896 C14.7245137,33.1909538 15.3953342,33.1909538 15.817302,33.615896 L16.6179587,34.4221965 C17.0399264,34.8907225 17.0399264,35.5662717 16.6179587,35.9912139 Z M21.9196044,43.5747977 C21.7464894,44.0433237 21.313702,44.4246821 20.5779634,44.2503468 L18.8143548,43.6619653 C18.2625508,43.4876301 17.9704193,42.8556647 18.1435343,42.3108671 C18.3166492,41.7551734 18.944191,41.4609827 19.4851752,41.6353179 L21.2487839,42.2236994 C21.7897682,42.3980347 22.0818997,42.9864162 21.9196044,43.5747977 Z M23.2179666,32.6461561 C23.0123926,32.9839306 22.5146871,33.4088728 21.7897682,33.0710983 C21.2055052,32.7333237 20.6537012,32.3083815 20.1884548,31.7526879 C19.8097658,31.2841618 19.8530445,30.6086127 20.2750123,30.2272543 C20.7402587,29.845896 21.4110792,29.8894798 21.7897682,30.314422 C22.0818997,30.6521965 22.4173099,30.9463873 22.7959989,31.1643064 C23.3045241,31.5020809 23.5100981,32.1340462 23.2179666,32.6461561 Z M23.1746879,21.2489884 C22.9799336,21.3797399 22.3740312,21.8373699 21.659932,21.118237 C21.1946855,20.649711 20.902554,20.1049133 20.6104225,19.5056358 C20.3615697,18.9499422 20.5671438,18.3179769 21.1189477,18.0673699 C21.6707517,17.816763 22.2982934,18.0237861 22.5471462,18.5794798 C22.7527202,19.004422 23.0123926,19.3857803 23.3045241,19.7235549 C23.6832131,20.1920809 23.5966556,20.8676301 23.1746879,21.2489884 Z M23.4776391,13.1532948 C23.3910816,12.5649133 23.7697706,12.0092197 24.3648533,11.922052 C25.1222312,11.7913006 25.9228879,12.0963873 26.4314131,12.6847688 C26.8101021,13.1532948 26.7668234,13.8288439 26.3015769,14.2102023 C25.4360021,14.8748555 24.7002635,14.0358671 24.7002635,14.0358671 C24.1051808,14.1775145 23.5533769,13.7525723 23.4776391,13.1532948 Z M27.2645289,41.7115896 C25.4576415,41.7115896 23.9861643,40.2297399 23.9861643,38.4101156 C23.9861643,36.5904913 25.4576415,35.1086416 27.2645289,35.1086416 C29.0714163,35.1086416 30.5428935,36.5904913 30.5428935,38.4101156 C30.5428935,40.2297399 29.0714163,41.7115896 27.2645289,41.7115896 Z M31.8845345,33.5832081 C31.3219109,33.7248555 30.9540416,33.4524566 30.7484675,33.1582659 C30.3264998,32.9839306 30.0776471,32.5698844 30.0776471,32.1013584 C30.1209258,31.5129769 30.629451,31.0444509 31.213714,31.0880347 C31.9278132,31.1316185 32.5228959,31.6437283 32.6851912,32.3192775 C32.8150274,32.8640751 32.4363384,33.4088728 31.8845345,33.5832081 Z M38.3222472,34.3895087 L37.813722,35.1958092 C37.3051968,35.958526 36.5045401,35.6643353 36.3422448,35.5335838 C35.8337196,35.2393931 35.6714243,34.5638439 36.0068346,34.0517341 L36.5153598,33.2454335 C36.8074913,32.7333237 37.4783117,32.5698844 37.9868369,32.907659 C38.4953622,33.2018497 38.6576574,33.8773988 38.3222472,34.3895087 Z M38.7442149,28.4076301 C38.6143787,28.9197399 38.192411,29.2139306 37.6947054,29.2139306 C37.608148,29.2139306 37.5215905,29.2139306 37.4458527,29.1703468 C37.1537212,29.0831792 36.8940487,29.0831792 36.6019172,29.0831792 C36.0176542,29.1703468 35.509129,28.7454046 35.4658503,28.1461272 C35.4225716,27.5577457 35.8445393,27.0456358 36.4288023,27.002052 C36.9373275,26.9584682 37.435033,27.002052 37.9435582,27.1328035 C38.5386409,27.2635549 38.9173299,27.8628324 38.7442149,28.4076301 Z" id="Shape" fill="#E5293E"></path>
                </g>
            </g>
        </g>
    </g>
</svg>