<?xml version="1.0" encoding="UTF-8"?>
<svg width="88px" height="86px" viewBox="0 0 88 86" version="1.1" xmlns="http://www.w3.org/2000/svg" xmlns:xlink="http://www.w3.org/1999/xlink">
    <!-- Generator: Sketch 55 (78076) - https://sketchapp.com -->
    <title>tamanho-g</title>
    <desc>Created with Sketch.</desc>
    <g id="Mobile" stroke="none" stroke-width="1" fill="none" fill-rule="evenodd">
        <g id="Tamanho" transform="translate(-234.000000, -126.000000)" fill-rule="nonzero">
            <g id="Group-Copy" transform="translate(193.000000, 95.000000)">
                <g id="tamanho-g" transform="translate(41.000000, 31.000000)">
                    <path d="M62.7322831,0 L60.097561,6.6341263 C70.6913395,10.6973039 78.6686925,19.9203576 80.8094042,31.175 L88,29.844579 C85.3652779,16.1628172 75.6863335,4.90817474 62.7322831,0 Z" id="Shape" fill="#0B2031"></path>
                    <path d="M58.9821869,9.675 L48.2926829,36.55 L77.2682927,31.1962032 L77.2682927,31.1962032 C75.3691422,21.4957594 68.4055906,13.2618672 58.9821869,9.675 Z M64.3902439,29.2702498 C60.9355988,29.2702498 58.132091,26.5138396 58.132091,23.1566732 C58.132091,19.7995069 60.9536859,17.0430966 64.3902439,17.0430966 C67.844889,17.0430966 70.6483968,19.7995069 70.6483968,23.1566732 C70.6483968,26.5138396 67.7725404,29.2702498 64.3902439,29.2702498 Z" id="Shape" fill="#0B2031"></path>
                    <path d="M79.8572181,38.8090195 L74.5117326,39.7728293 L74.5117326,39.7728293 C74.9270913,41.932477 75.1438002,44.0742764 75.1438002,46.2339242 C75.1438002,65.2602423 59.4865844,80.6633498 40.3078496,80.6633498 C21.1291147,80.6633498 5.39966264,65.188849 5.39966264,46.2339242 C5.39966264,27.2789993 21.0749375,11.8044985 40.2356133,11.8044985 C44.5878497,11.8044985 48.8678499,12.5719767 52.8769639,14.1604779 L54.8454028,9.16294593 C50.2764575,7.43165807 45.3643898,6.45 40.2356133,6.45 C18.0410133,6.46784833 0,24.2447835 0,46.2339242 C0,68.2230648 18.0410133,86 40.2356133,86 C62.4302132,86 80.4712265,68.1695199 80.4712265,46.2339242 C80.5615219,43.6637649 80.2725767,41.2363922 79.8572181,38.8090195 Z" id="Shape" fill="#0B2031"></path>
                    <path d="M70.3302472,40.4224855 L39.7542251,46.225 L50.928306,17.4286705 C50.928306,17.4286705 46.5089749,15.05 39.682366,15.05 C22.5619494,15.05 8.58536585,29.0697399 8.58536585,46.2430202 C8.58536585,63.4163006 22.5619494,77.4 39.6644013,77.4 C56.7668531,77.4 70.7614014,63.3802601 70.7614014,46.2069798 C71.0488376,44.3869364 70.3302472,40.4224855 70.3302472,40.4224855 Z M27.5202233,23.231185 C28.5621794,22.8167197 29.6221002,22.528396 30.6640563,22.3842341 C31.6341534,22.2400723 32.5503562,22.9428613 32.6940742,23.8618931 C32.8377923,24.8349855 32.1371667,25.7540173 31.2209639,25.8981792 C30.4484792,26.042341 29.6221002,26.2405636 28.9214746,26.5288873 C27.7358004,27.0334538 26.8914566,26.2405636 26.6219852,25.5557948 C26.190831,24.636763 26.6040205,23.5735694 27.5202233,23.231185 Z M21.9331828,30.5113584 C22.7775265,30.4392775 23.6039055,30.7276012 24.2326721,31.2141474 C25.0051568,31.7727746 25.1488749,32.8900289 24.5740026,33.7369798 C24.2326721,34.223526 23.3164693,34.8362139 22.1307952,34.0793642 C21.1606981,34.1514451 20.3163544,33.3765751 20.2444953,32.4034827 C20.1726363,31.4303902 20.945121,30.5834393 21.9331828,30.5113584 Z M16.0587062,50.9102601 C15.2862215,50.3516329 15.0886091,49.2343786 15.7173757,48.3874277 C16.2742833,47.6125578 17.3880984,47.4143353 18.2324422,48.0450434 L20.3343191,49.5947832 C21.1068038,50.1534104 21.3044162,51.2706647 20.6756496,52.1176156 C20.3343191,52.6041618 19.3821868,53.2348699 18.2324422,52.46 L16.0587062,50.9102601 Z M21.7176057,65.7048699 C21.3762752,66.0472543 20.1726363,66.641922 19.2025392,65.7048699 L18.3581955,64.8579191 C17.6575698,64.1551301 17.6575698,63.0378757 18.3581955,62.3350867 C19.0588211,61.6322977 20.1726363,61.6322977 20.8732619,62.3350867 L21.7176057,63.1820376 C22.4182313,63.8668064 22.4182313,65.0020809 21.7176057,65.7048699 Z M21.01698,42.1524277 C21.01698,39.2151301 23.3883284,36.8184393 26.3345491,36.8184393 C29.2807698,36.8184393 31.6521181,39.1971098 31.6521181,42.1524277 C31.6521181,45.1077457 29.2807698,47.4864162 26.3345491,47.4864162 C23.3883284,47.4864162 21.01698,45.0897254 21.01698,42.1524277 Z M27.5920823,59.5239306 C27.2507519,59.866315 26.0650777,60.4790029 25.0770159,59.4518497 L23.7476236,58.1183526 C23.0469979,57.4155636 23.0469979,56.2983092 23.7476236,55.5955202 C24.4482492,54.8927312 25.5620644,54.8927312 26.26269,55.5955202 L27.5920823,56.9290173 C28.292708,57.7038873 28.292708,58.8211416 27.5920823,59.5239306 Z M36.3948149,72.0660116 C36.1073787,72.8408815 35.3887883,73.4715896 34.1671846,73.1832659 L31.2389287,72.2101734 C30.3227259,71.9218497 29.8376773,70.8766763 30.1251135,69.9756647 C30.4125497,69.0566329 31.4545058,68.5700867 32.3527438,68.8584104 L35.2809997,69.8315029 C36.1792377,70.1198266 36.6642863,71.0929191 36.3948149,72.0660116 Z M38.5505861,53.9917197 C38.2092557,54.5503468 37.3828767,55.2531358 36.1792377,54.6945087 C35.2091407,54.1358815 34.2929379,53.4330925 33.5204532,52.5140607 C32.8916866,51.7391908 32.9635456,50.6219364 33.6641713,49.9912283 C34.436656,49.3605202 35.5504711,49.4326012 36.1792377,50.1353902 C36.6642863,50.6940173 37.2211938,51.1805636 37.8499605,51.5409682 C38.6943042,52.0995954 39.0356346,53.1447688 38.5505861,53.9917197 Z M38.4787271,35.1425578 C38.1553614,35.3588006 37.1493348,36.1156503 35.9636606,34.926315 C35.1911759,34.1514451 34.7061274,33.2504335 34.2210789,32.2593208 C33.8078894,31.340289 34.1492198,30.2951156 35.0654226,29.8806503 C35.9816254,29.466185 37.0235815,29.8085694 37.436771,30.7276012 C37.7781014,31.4303902 38.2092557,32.0610983 38.6943042,32.6197254 C39.3230708,33.3945954 39.1793527,34.5118497 38.4787271,35.1425578 Z M38.9817404,21.753526 C38.8380223,20.7804335 39.4667889,19.8614017 40.4548507,19.7172399 C41.7123839,19.5009971 43.0417762,20.0055636 43.8861199,20.9786561 C44.5148866,21.753526 44.4430275,22.8707803 43.6705428,23.5014884 C42.233362,24.6007225 41.0117583,23.2131647 41.0117583,23.2131647 C40.0236965,23.4474277 39.1074937,22.7446387 38.9817404,21.753526 Z M45.2694065,68.984552 C42.2692915,68.984552 39.8260841,66.5338006 39.8260841,63.524422 C39.8260841,60.5150434 42.2692915,58.0642919 45.2694065,58.0642919 C48.2695215,58.0642919 50.7127289,60.5150434 50.7127289,63.524422 C50.7127289,66.5338006 48.2695215,68.984552 45.2694065,68.984552 Z M52.9403592,55.5414595 C52.0061916,55.7757225 51.3953898,55.3252168 51.0540593,54.8386705 C50.3534337,54.5503468 49.9402442,53.865578 49.9402442,53.0907081 C50.0121032,52.1176156 50.856447,51.3427457 51.826544,51.4148266 C53.0122182,51.4869075 54.00028,52.3338584 54.2697514,53.4511127 C54.4853285,54.3521243 53.8565619,55.2531358 52.9403592,55.5414595 Z M63.6293916,56.8749566 L62.7850478,58.2084538 C61.9407041,59.4698699 60.6113118,58.9833237 60.3418404,58.7670809 C59.4974967,58.2805347 59.2280253,57.1632803 59.7849328,56.3163295 L60.6292766,54.9828324 C61.1143251,54.1358815 62.2281403,53.865578 63.072484,54.4242052 C63.9168277,54.9107514 64.1862991,56.0280058 63.6293916,56.8749566 Z M64.3300172,46.9818497 C64.1144401,47.8288006 63.4138144,48.3153468 62.5874355,48.3153468 C62.4437174,48.3153468 62.2999993,48.3153468 62.174246,48.2432659 C61.6891974,48.099104 61.2580432,48.099104 60.7729947,48.099104 C59.8028976,48.2432659 58.9585539,47.5404769 58.8866948,46.5493642 C58.8148358,45.5762717 59.5154614,44.7293208 60.4855585,44.6572399 C61.3299022,44.585159 62.1562812,44.6572399 63.0006249,44.8734827 C63.9886868,45.0897254 64.6174534,46.0808382 64.3300172,46.9818497 Z" id="Shape" fill="#E5293E"></path>
                </g>
            </g>
        </g>
    </g>
</svg>