<?xml version="1.0" encoding="UTF-8"?>
<svg width="110px" height="107px" viewBox="0 0 110 107" version="1.1" xmlns="http://www.w3.org/2000/svg" xmlns:xlink="http://www.w3.org/1999/xlink">
    <!-- Generator: Sketch 55 (78076) - https://sketchapp.com -->
    <title>tamanho-gg</title>
    <desc>Created with Sketch.</desc>
    <g id="Mobile" stroke="none" stroke-width="1" fill="none" fill-rule="evenodd">
        <g id="Tamanho" transform="translate(-43.000000, -115.000000)" fill-rule="nonzero">
            <g id="Group" transform="translate(13.000000, 95.000000)">
                <g id="tamanho-gg" transform="translate(30.000000, 20.000000)">
                    <path d="M78.4153539,0 L75.1219512,8.25408737 C88.3641743,13.3094363 98.3358657,24.7846309 101.011755,38.7875 L110,37.1322088 C106.706597,20.1095516 94.6079168,6.10668253 78.4153539,0 Z" id="Shape" fill="#0B2031"></path>
                    <path d="M73.7277336,12.0375 L60.3658537,45.475 L96.5853659,38.8138807 L96.5853659,38.8138807 C94.2114278,26.7447239 85.5069882,16.5002301 73.7277336,12.0375 Z M80.4878049,36.4176364 C76.1694985,36.4176364 72.6651137,32.9881492 72.6651137,28.8112097 C72.6651137,24.6342702 76.1921074,21.204783 80.4878049,21.204783 C84.8061113,21.204783 88.310496,24.6342702 88.310496,28.8112097 C88.310496,32.9881492 84.7156755,36.4176364 80.4878049,36.4176364 Z" id="Shape" fill="#0B2031"></path>
                    <path d="M99.8215226,48.2856406 L93.1396658,49.4847992 L93.1396658,49.4847992 C93.6588641,52.1718028 93.9297502,54.8365997 93.9297502,57.5236033 C93.9297502,81.1958829 74.3582305,100.360214 50.3848119,100.360214 C26.4113934,100.360214 6.7495783,81.1070563 6.7495783,57.5236033 C6.7495783,33.9401503 26.3436718,14.6869924 50.2945166,14.6869924 C55.7348121,14.6869924 61.0848123,15.6418779 66.0962049,17.618269 L68.5567535,11.4004095 C62.8455719,9.24636527 56.7054873,8.025 50.2945166,8.025 C22.5512666,8.04720664 0,30.1650213 0,57.5236033 C0,84.8821853 22.5512666,107 50.2945166,107 C78.0377665,107 100.589033,84.8155654 100.589033,57.5236033 C100.701902,54.325847 100.340721,51.3057438 99.8215226,48.2856406 Z" id="Shape" fill="#0B2031"></path>
                    <path d="M87.912809,50.2930925 L49.6927813,57.5125 L63.6603825,21.6845087 C63.6603825,21.6845087 58.1362187,18.725 49.6029575,18.725 C28.2024368,18.725 10.7317073,36.1681647 10.7317073,57.5349205 C10.7317073,78.9016763 28.2024368,96.3 49.5805016,96.3 C70.9585664,96.3 88.4517518,78.8568353 88.4517518,57.4900795 C88.811047,55.2256069 87.912809,50.2930925 87.912809,50.2930925 Z M34.4002791,28.9039162 C35.7027242,28.3882442 37.0276253,28.0295159 38.3300704,27.8501517 C39.5426917,27.6707876 40.6879452,28.5451879 40.8675928,29.6886344 C41.0472404,30.8993425 40.1714583,32.042789 39.0262049,32.2221532 C38.060599,32.4015173 37.0276253,32.6481431 36.1518432,33.0068714 C34.6697505,33.634646 33.6143208,32.6481431 33.2774816,31.7961633 C32.7385387,30.6527168 33.2550256,29.3299061 34.4002791,28.9039162 Z M27.4164785,37.9618064 C28.4719082,37.8721243 29.5048819,38.2308526 30.2908401,38.8362066 C31.256446,39.5312428 31.4360936,40.921315 30.7175032,41.9750795 C30.2908401,42.5804335 29.1455867,43.3427312 27.6634939,42.4010694 C26.4508726,42.4907514 25.395443,41.5266691 25.3056191,40.315961 C25.2157953,39.1052529 26.1814012,38.0514884 27.4164785,37.9618064 Z M20.0733827,63.3418353 C19.1077768,62.6467991 18.8607614,61.2567269 19.6467196,60.2029624 C20.3428541,59.2388801 21.735123,58.9922543 22.7905527,59.7769725 L25.4178989,61.7051373 C26.3835048,62.4001734 26.6305202,63.7902457 25.844562,64.8440101 C25.4178989,65.4493642 24.2277335,66.2340824 22.7905527,65.27 L20.0733827,63.3418353 Z M27.1470071,81.7490824 C26.720344,82.1750723 25.2157953,82.9149494 24.003174,81.7490824 L22.9477444,80.6953179 C22.0719623,79.8209176 22.0719623,78.4308454 22.9477444,77.5564451 C23.8235264,76.6820448 25.2157953,76.6820448 26.0915774,77.5564451 L27.1470071,78.6102095 C28.0227892,79.4621893 28.0227892,80.8746821 27.1470071,81.7490824 Z M26.271225,52.4454624 C26.271225,48.7909176 29.2354105,45.8089884 32.9181863,45.8089884 C36.6009622,45.8089884 39.5651477,48.7684971 39.5651477,52.4454624 C39.5651477,56.1224277 36.6009622,59.0819364 32.9181863,59.0819364 C29.2354105,59.0819364 26.271225,56.1000072 26.271225,52.4454624 Z M34.4901029,74.0588439 C34.0634398,74.4848338 32.5813471,75.2471315 31.3462698,73.9691618 L29.6845295,72.3100434 C28.8087474,71.4356431 28.8087474,70.0455708 29.6845295,69.1711705 C30.5603116,68.2967702 31.9525805,68.2967702 32.8283625,69.1711705 L34.4901029,70.830289 C35.3658849,71.7943714 35.3658849,73.1844436 34.4901029,74.0588439 Z M45.4935186,89.663526 C45.1342234,90.6276084 44.2359854,91.4123266 42.7089807,91.0535983 L39.0486608,89.8428902 C37.9034073,89.4841618 37.2970967,88.1837717 37.6563919,87.0627457 C38.0156871,85.9192991 39.3181322,85.3139451 40.4409297,85.6726734 L44.1012497,86.8833815 C45.2240472,87.2421098 45.8303578,88.4528179 45.4935186,89.663526 Z M48.1882326,67.1757442 C47.7615696,67.8707803 46.7285959,68.7451806 45.2240472,68.0501445 C44.0114259,67.3551084 42.8661724,66.4807081 41.9005665,65.3372616 C41.1146083,64.3731792 41.2044321,62.9831069 42.0802141,62.1983887 C43.04582,61.4136705 44.4380889,61.5033526 45.2240472,62.3777529 C45.8303578,63.072789 46.5264923,63.6781431 47.3124506,64.1265535 C48.3678802,64.8215896 48.7945433,66.1219798 48.1882326,67.1757442 Z M48.0984088,43.7238801 C47.6942017,43.9929263 46.4366685,44.9345882 44.9545758,43.4548338 C43.9889699,42.4907514 43.3826593,41.3697254 42.7763486,40.1365968 C42.2598617,38.9931503 42.6865248,37.6927601 43.8317783,37.1770882 C44.9770317,36.6614162 46.2794769,37.0874061 46.7959637,38.2308526 C47.2226268,39.1052529 47.7615696,39.8899711 48.3678802,40.5850072 C49.1538385,41.5490896 48.9741909,42.9391618 48.0984088,43.7238801 Z M48.7271755,27.0654335 C48.5475279,25.8547254 49.3334861,24.7112789 50.5685634,24.5319147 C52.1404799,24.2628685 53.8022203,24.8906431 54.8576499,26.1013512 C55.6436082,27.0654335 55.5537844,28.4555058 54.5881785,29.240224 C52.7917025,30.6078757 51.2646979,28.8814957 51.2646979,28.8814957 C50.0296206,29.1729624 48.8843671,28.2985621 48.7271755,27.0654335 Z M56.5867581,85.8296171 C52.8366144,85.8296171 49.7826051,82.7804263 49.7826051,79.0361994 C49.7826051,75.2919725 52.8366144,72.2427818 56.5867581,72.2427818 C60.3369018,72.2427818 63.3909111,75.2919725 63.3909111,79.0361994 C63.3909111,82.7804263 60.3369018,85.8296171 56.5867581,85.8296171 Z M66.1754489,69.103909 C65.0077395,69.3953757 64.2442372,68.8348627 63.8175741,68.2295087 C62.9417921,67.8707803 62.4253052,67.0188006 62.4253052,66.0547182 C62.515129,64.8440101 63.5705587,63.8799277 64.78318,63.9696098 C66.2652727,64.0592919 67.50035,65.1130564 67.8371893,66.5031286 C68.1066607,67.6241546 67.3207024,68.7451806 66.1754489,69.103909 Z M79.5367395,70.7630275 L78.4813098,72.422146 C77.4258801,73.9915824 75.7641398,73.3862283 75.4273005,73.1171821 C74.3718709,72.511828 74.0350316,71.1217558 74.7311661,70.0679913 L75.7865957,68.4088728 C76.3929064,67.3551084 77.7851753,67.0188006 78.840605,67.7138367 C79.8960347,68.3191908 80.2328739,69.709263 79.5367395,70.7630275 Z M80.4125215,58.4541618 C80.1430501,59.5079263 79.267268,60.1132803 78.2342943,60.1132803 C78.0546467,60.1132803 77.8749991,60.1132803 77.7178075,60.0235983 C77.1114968,59.8442341 76.572554,59.8442341 75.9662433,59.8442341 C74.753622,60.0235983 73.6981923,59.149198 73.6083685,57.9160694 C73.5185447,56.7053613 74.3943268,55.6515968 75.6069481,55.5619147 C76.6623778,55.4722327 77.6953515,55.5619147 78.7507812,55.830961 C79.9858585,56.1000072 80.7718167,57.3331358 80.4125215,58.4541618 Z" id="Shape" fill="#E5293E"></path>
                </g>
            </g>
        </g>
    </g>
</svg>