<?xml version="1.0" encoding="UTF-8"?>
<svg width="77px" height="75px" viewBox="0 0 77 75" version="1.1" xmlns="http://www.w3.org/2000/svg" xmlns:xlink="http://www.w3.org/1999/xlink">
    <!-- Generator: Sketch 55 (78076) - https://sketchapp.com -->
    <title>tamanho-m</title>
    <desc>Created with Sketch.</desc>
    <g id="Mobile" stroke="none" stroke-width="1" fill="none" fill-rule="evenodd">
        <g id="Tamanho" transform="translate(-60.000000, -351.000000)" fill-rule="nonzero">
            <g id="Group-Copy-3" transform="translate(13.000000, 315.000000)">
                <g id="tamanho-m" transform="translate(47.000000, 36.000000)">
                    <path d="M54.8907477,0 L52.5853659,5.78557526 C61.854922,9.32904412 68.835106,17.3724048 70.7082287,27.1875 L77,26.0272491 C74.6946182,14.0954801 66.2255418,4.28038495 54.8907477,0 Z" id="Shape" fill="#0B2031"></path>
                    <path d="M51.6094135,8.4375 L42.2560976,31.875 L67.6097561,27.2059911 L67.6097561,27.2059911 C65.9479995,18.7463018 59.8548918,11.5655819 51.6094135,8.4375 Z M56.3414634,25.5263807 C53.3186489,25.5263807 50.8655796,23.1225345 50.8655796,20.1947732 C50.8655796,17.2670118 53.3344752,14.8631657 56.3414634,14.8631657 C59.3642779,14.8631657 61.8173472,17.2670118 61.8173472,20.1947732 C61.8173472,23.1225345 59.3009729,25.5263807 56.3414634,25.5263807 Z" id="Shape" fill="#0B2031"></path>
                    <path d="M69.8750658,33.8450752 L65.1977661,34.6856069 L65.1977661,34.6856069 C65.5612049,36.5690206 65.7508252,38.436869 65.7508252,40.3202827 C65.7508252,56.913002 52.0507614,70.3459446 35.2693684,70.3459446 C18.4879753,70.3459446 4.72470481,56.8507404 4.72470481,40.3202827 C4.72470481,23.789825 18.4405703,10.2946208 35.2061616,10.2946208 C39.0143685,10.2946208 42.7593686,10.9639331 46.2673434,12.349254 L47.9897275,7.99094122 C43.9919003,6.48109715 39.6938411,5.625 35.2061616,5.625 C15.7858866,5.6405654 0,21.1437065 0,40.3202827 C0,59.4968589 15.7858866,75 35.2061616,75 C54.6264366,75 70.4123232,59.4501627 70.4123232,40.3202827 C70.4913317,38.0788647 70.2385046,35.9619699 69.8750658,33.8450752 Z" id="Shape" fill="#0B2031"></path>
                    <path d="M61.5389663,35.2521676 L34.7849469,40.3125 L44.5622677,15.199422 C44.5622677,15.199422 40.6953531,13.125 34.7220703,13.125 C19.7417057,13.125 7.51219512,25.3515173 7.51219512,40.3282153 C7.51219512,55.3049133 19.7417057,67.5 34.7063511,67.5 C49.6709965,67.5 61.9162262,55.2734827 61.9162262,40.2967847 C62.1677329,38.7095376 61.5389663,35.2521676 61.5389663,35.2521676 Z M24.0801954,20.2597543 C24.9919069,19.898302 25.9193377,19.6468569 26.8310493,19.5211344 C27.6798842,19.3954118 28.4815616,20.0083092 28.607315,20.8097905 C28.7330683,21.6584176 28.1200208,22.4598988 27.3183434,22.5856214 C26.6424193,22.7113439 25.9193377,22.8842124 25.3062902,23.1356575 C24.2688253,23.5756864 23.5300246,22.8842124 23.2942371,22.2870303 C22.9169771,21.4855491 23.2785179,20.5583454 24.0801954,20.2597543 Z M19.1915349,26.6087428 C19.9303357,26.5458815 20.6534173,26.7973266 21.2035881,27.2216402 C21.8795122,27.708815 22.0052655,28.6831647 21.5022522,29.4217847 C21.2035881,29.8460983 20.4019107,30.3804191 19.3644458,29.7203757 C18.5156108,29.783237 17.7768101,29.1074783 17.7139334,28.2588512 C17.6510567,27.410224 18.3269809,26.671604 19.1915349,26.6087428 Z M14.0513679,44.3984827 C13.3754438,43.9113078 13.202533,42.9369581 13.7527037,42.1983382 C14.2399979,41.5225795 15.2145861,41.349711 15.9533869,41.8997471 L17.7925292,43.2512645 C18.4684533,43.7384393 18.6413642,44.712789 18.0911934,45.451409 C17.7925292,45.8757225 16.9594135,46.4257587 15.9533869,45.75 L14.0513679,44.3984827 Z M19.002905,57.3007587 C18.7042408,57.5993497 17.6510567,58.1179552 16.8022218,57.3007587 L16.063421,56.5621387 C15.4503736,55.9492413 15.4503736,54.9748916 16.063421,54.3619942 C16.6764685,53.7490968 17.6510567,53.7490968 18.2641042,54.3619942 L19.002905,55.1006142 C19.6159524,55.6977962 19.6159524,56.6878613 19.002905,57.3007587 Z M18.3898575,36.7608382 C18.3898575,34.1992413 20.4647873,32.109104 23.0427304,32.109104 C25.6206736,32.109104 27.6956034,34.183526 27.6956034,36.7608382 C27.6956034,39.3381503 25.6206736,41.4125723 23.0427304,41.4125723 C20.4647873,41.4125723 18.3898575,39.322435 18.3898575,36.7608382 Z M24.143072,51.9104046 C23.8444079,52.2089957 22.806943,52.7433165 21.9423889,51.8475434 L20.7791706,50.6846098 C20.1661232,50.0717124 20.1661232,49.0973627 20.7791706,48.4844653 C21.3922181,47.8715679 22.3668063,47.8715679 22.9798538,48.4844653 L24.143072,49.6473988 C24.7561195,50.3231575 24.7561195,51.2975072 24.143072,51.9104046 Z M31.845463,62.8482659 C31.5939564,63.5240246 30.9651898,64.0740607 29.8962865,63.8226156 L27.3340626,62.9739884 C26.5323851,62.7225434 26.1079677,61.8110549 26.3594743,61.025289 C26.610981,60.2238078 27.5226926,59.7994942 28.3086508,60.0509393 L30.8708748,60.8995665 C31.656833,61.1510116 32.0812505,61.9996387 31.845463,62.8482659 Z M33.7317629,47.085802 C33.4330987,47.5729769 32.7100171,48.1858743 31.656833,47.6986994 C30.8079981,47.2115246 30.0063207,46.5986272 29.3303966,45.797146 C28.7802258,45.1213873 28.8431024,44.1470376 29.4561499,43.5970014 C30.132074,43.0469653 31.1066622,43.1098266 31.656833,43.722724 C32.0812505,44.2098988 32.5685446,44.6342124 33.1187154,44.9485188 C33.8575162,45.4356936 34.1561803,46.3471821 33.7317629,47.085802 Z M33.6688862,30.6475795 C33.3859412,30.8361633 32.505668,31.4962066 31.468203,30.4589957 C30.7922789,29.783237 30.3678615,28.9974711 29.943444,28.1331286 C29.5819032,27.3316474 29.8805674,26.420159 30.6822448,26.0587066 C31.4839222,25.6972543 32.3956338,25.9958454 32.7571746,26.7973266 C33.0558387,27.410224 33.4330987,27.9602601 33.8575162,28.447435 C34.407687,29.1231936 34.2819336,30.0975434 33.6688862,30.6475795 Z M34.1090228,18.9710983 C33.9832695,18.1224711 34.5334403,17.3209899 35.3979944,17.1952673 C36.4983359,17.0066835 37.6615542,17.4467124 38.4003549,18.2953396 C38.9505257,18.9710983 38.8876491,19.945448 38.211725,20.4954841 C36.9541917,21.4541185 35.8852885,20.244039 35.8852885,20.244039 C35.0207344,20.4483382 34.219057,19.8354408 34.1090228,18.9710983 Z M39.6107307,60.1609465 C36.9856301,60.1609465 34.8478236,58.0236633 34.8478236,55.3992052 C34.8478236,52.7747471 36.9856301,50.6374639 39.6107307,50.6374639 C42.2358313,50.6374639 44.3736378,52.7747471 44.3736378,55.3992052 C44.3736378,58.0236633 42.2358313,60.1609465 39.6107307,60.1609465 Z M46.3228143,48.4373194 C45.5054177,48.6416185 44.970966,48.2487355 44.6723019,47.824422 C44.0592545,47.5729769 43.6977137,46.9757948 43.6977137,46.3000361 C43.7605903,45.451409 44.4993911,44.7756503 45.348226,44.8385116 C46.3856909,44.9013728 47.250245,45.6399928 47.4860325,46.6143425 C47.6746625,47.4001084 47.1244917,48.1858743 46.3228143,48.4373194 Z M55.6757176,49.6002529 L54.9369168,50.7631864 C54.1981161,51.8632587 53.0348978,51.4389451 52.7991104,51.2503613 C52.0603096,50.8260477 51.8245221,49.851698 52.3118162,49.113078 L53.050617,47.9501445 C53.4750345,47.2115246 54.4496227,46.9757948 55.1884235,47.4629697 C55.9272243,47.8872832 56.1630117,48.8616329 55.6757176,49.6002529 Z M56.2887651,40.9725434 C56.1001351,41.7111633 55.4870876,42.1354769 54.764006,42.1354769 C54.6382527,42.1354769 54.5124994,42.1354769 54.4024652,42.0726156 C53.9780478,41.9468931 53.6007878,41.9468931 53.1763703,41.9468931 C52.3275354,42.0726156 51.5887346,41.4597182 51.525858,40.5953757 C51.4629813,39.7467486 52.0760288,39.0081286 52.9248637,38.9452673 C53.6636645,38.8824061 54.3867461,38.9452673 55.1255468,39.1338512 C55.9901009,39.322435 56.5402717,40.1867775 56.2887651,40.9725434 Z" id="Shape" fill="#E5293E"></path>
                </g>
            </g>
        </g>
    </g>
</svg>